<?xml version="1.0" encoding="utf-8"?>
<!-- Generator: Adobe Illustrator 16.0.0, SVG Export Plug-In . SVG Version: 6.00 Build 0)  -->
<!DOCTYPE svg PUBLIC "-//W3C//DTD SVG 1.1//EN" "http://www.w3.org/Graphics/SVG/1.1/DTD/svg11.dtd">
<svg version="1.1" id="Layer_1" xmlns="http://www.w3.org/2000/svg" xmlns:xlink="http://www.w3.org/1999/xlink" x="0px" y="0px"
	 width="381.5px" height="200px" viewBox="0 0 381.5 200" enable-background="new 0 0 381.5 200" xml:space="preserve">
<g>
	<path fill="#FFFFFF" d="M131.335,60.617h2.271c8.125,0,15.229,3.669,21.315,11.007c2.241,3.087,3.522,5.649,3.844,7.688v1.223
		c0,3.116-1.922,5.271-5.766,6.464h-1.572c-2.767,0-5.038-2.096-6.813-6.29c-3.379-4.193-6.931-6.29-10.658-6.29h-1.572
		c-5.853,0-10.104,3.204-12.753,9.609c-0.466,1.514-0.699,3.728-0.699,6.639v3.844c0,7.455,2.504,12.347,7.513,14.676
		c1.746,1.048,3.727,1.572,5.939,1.572h1.572c3.436,0,6.756-1.805,9.959-5.416l2.621-4.542c1.717-1.747,3.348-2.621,4.892-2.621
		h0.698c3.203,0,5.416,1.864,6.64,5.591v2.097c-0.292,2.592-2.446,6.202-6.464,10.832c-5.912,5.241-12.143,7.862-18.695,7.862
		h-2.271c-5.824,0-11.647-2.504-17.471-7.513c-5.708-5.94-8.561-12.229-8.561-18.869V86.998c0-6.027,2.446-11.909,7.338-17.646
		C118.697,63.529,124.929,60.617,131.335,60.617z"/>
	<path fill="#FFFFFF" d="M170.295,60.617c2.533,0,4.514,1.34,5.94,4.019c4.571-2.679,9.114-4.019,13.628-4.019h2.096
		c6.93,0,13.453,3.087,19.568,9.26c6.115-6.173,12.521-9.26,19.218-9.26h2.795c7.164,0,13.744,3.204,19.743,9.609
		c4.426,5.591,6.639,11.124,6.639,16.598v31.273c0,2.854-1.572,4.892-4.717,6.114l-1.398,0.35h-1.397
		c-4.077-0.989-6.115-3.203-6.115-6.639V93.637c0-7.134-0.815-11.501-2.445-13.103c-2.941-4.077-6.669-6.115-11.182-6.115h-1.223
		c-4.951,0-8.97,2.795-12.056,8.386l-1.048,4.542l0.175,4.717v23.761c0,4.367-1.457,7.163-4.368,8.386l-1.747,0.35h-1.223
		c-3.087,0-5.242-1.863-6.465-5.591v-0.175l-0.174-27.954v-3.669c0-4.658-2.68-8.561-8.037-11.706
		c-2.184-0.699-3.814-1.048-4.893-1.048h-1.746c-4.747,0-8.648,2.621-11.706,7.862c-0.815,2.009-1.224,3.698-1.224,5.066v28.128
		c0,4.659-1.339,7.454-4.018,8.386c0,0.263-0.699,0.496-2.097,0.699h-1.747c-2.621,0-4.602-1.863-5.939-5.591V66.557
		c0-2.621,1.862-4.601,5.59-5.94H170.295z"/>
	<path fill="#FFFFFF" d="M290.671,60.617h2.445c7.688,0,14.617,3.611,20.791,10.833c3.727,5.241,5.591,10.424,5.591,15.549V98.18
		c0,7.688-3.611,14.618-10.832,20.791c-5.241,3.728-10.425,5.591-15.55,5.591h-2.445c-7.688,0-14.618-3.61-20.791-10.832
		c-3.728-5.241-5.591-10.424-5.591-15.549V86.998c0-7.687,3.61-14.617,10.832-20.791C280.362,62.481,285.545,60.617,290.671,60.617z
		 M278.092,87.348V97.83c0,4.63,2.562,8.532,7.687,11.706c2.271,0.815,4.019,1.223,5.242,1.223h1.747
		c4.63,0,8.531-2.562,11.705-7.687c0.815-2.271,1.223-4.019,1.223-5.242V87.348c0-4.63-2.563-8.531-7.687-11.706
		c-2.271-0.815-4.019-1.223-5.241-1.223h-1.747c-4.63,0-8.532,2.563-11.706,7.688C278.499,84.377,278.092,86.125,278.092,87.348z"/>
	<path fill="#FFFFFF" d="M350.597,60.617h2.271c9.26,0,16.947,3.32,23.063,9.959c1.63,2.65,2.445,4.455,2.445,5.416v1.048
		c0,2.912-1.631,5.009-4.892,6.29l-1.922,0.35c-2.883,0-5.329-1.863-7.338-5.591c-3.523-2.446-7.367-3.669-11.531-3.669h-2.445
		c-5.271,0-9.464,1.631-12.579,4.892v0.699c0,2.039,6.813,4.368,20.44,6.988c13.978,3.145,20.966,8.794,20.966,16.947v2.446
		c0,4.484-2.796,8.794-8.387,12.929c-5.475,3.494-11.589,5.241-18.344,5.241h-2.271c-9.26,0-16.947-3.319-23.062-9.959
		c-1.632-2.649-2.446-4.455-2.446-5.416v-1.048c0-2.911,1.63-5.008,4.892-6.29l1.922-0.35c2.883,0,5.329,1.864,7.338,5.591
		c3.523,2.446,7.366,3.669,11.531,3.669h2.445c5.271,0,9.464-1.63,12.579-4.892v-1.223c0-1.543-7.979-3.989-23.935-7.338
		c-11.647-3.261-17.472-8.619-17.472-16.073v-2.446c0-4.483,2.796-8.793,8.387-12.928C337.726,62.364,343.841,60.617,350.597,60.617
		z"/>
</g>
<g id="Layer_2">
</g>
<g>
	<path fill="#3F4D6C" d="M96.621,105.053c1.941-9.149,2.444-18.987,1.494-29.241c-0.007-0.063-0.013-0.127-0.02-0.19
		c-0.162-1.441-0.366-2.904-0.605-4.347c-2.545-15.293-8.748-25.865-9.011-26.308c-0.203-0.343-0.425-0.67-0.663-0.98
		c-2.478-3.226-6.727-4.638-10.698-3.441c-4.29,1.292-7.168,5.303-7.035,9.767c-0.045,0.402-0.472,3.375-3.5,7.443
		c-3.023,4.063-7.597,7.743-13.379,10.798c-6.027-8.376-12.673-12.913-12.962-13.108c-0.231-0.156-0.469-0.296-0.712-0.421
		c-2.528-1.299-5.635-0.924-7.788,1.018c-2.325,2.098-2.947,5.491-1.531,8.271c0.092,0.268,0.709,2.273,0.01,5.749
		c-0.877,4.357-3.478,9.065-7.521,13.615c-0.717,0.806-1.489,1.619-2.296,2.418c-0.028,0.028-0.057,0.057-0.084,0.086
		c-1.104,1.132-2.17,2.336-3.167,3.577c-0.742,0.924-1.461,1.891-2.149,2.884c-0.034,0.044-0.071,0.087-0.105,0.132
		c-5.382,6.895-8.287,14.431-8.639,22.402c-0.085,0.925-0.213,2.884-0.08,5.466c0.006,0.118,0.014,0.235,0.024,0.353
		c0.492,5.633,2.326,11.345,5.303,16.519c0.88,1.53,1.875,3.039,2.96,4.489c0.464,0.692,0.953,1.372,1.456,2.026
		c6.804,8.857,16.505,13.719,26.622,13.338c7.455-0.23,14.692-2.309,21.511-6.178c5.577-3.164,10.81-7.438,16-13.067
		c0.009-0.01,0.018-0.021,0.028-0.03c1.583-1.731,3.077-3.546,4.438-5.391C90.324,124.844,94.396,115.541,96.621,105.053z"/>
	<path fill="#FFFFFF" d="M8.382,119.696c0,0,9.238,26.411,27.816,29.25c18.578,2.84,42.806-14.345,48.059-34.421
		c5.253-20.076,1.026-38.573-17.452-37.569c-18.477,1.004-42.097,12.019-49.878,23.7S8.382,119.696,8.382,119.696z"/>
	<g>
		<path fill="#3F4D6C" d="M40.776,150.843h0.045c-0.012,0-0.024,0-0.036,0C40.782,150.843,40.779,150.845,40.776,150.843z
			 M74.868,133.174c1.47-1.607,2.852-3.287,4.108-4.989c5.381-7.287,9.164-15.946,11.241-25.738c1.838-8.661,2.312-18,1.408-27.757
			c-0.002-0.031-0.007-0.063-0.01-0.096c-0.153-1.362-0.345-2.737-0.57-4.085c-2.394-14.388-8.14-24.186-8.383-24.595
			c-0.103-0.171-0.213-0.333-0.333-0.489c-1.238-1.612-3.363-2.319-5.349-1.721c-2.177,0.656-3.626,2.71-3.514,4.982
			c0.048,0.973-0.563,4.832-3.889,9.622c-2.981,4.294-8.988,10.459-20.672,15.439c-1.515,0.646-3.11,1.266-4.742,1.84
			c-0.027,0.01-0.054,0.02-0.081,0.03c-1.969,0.733-3.935,1.576-5.845,2.505c-1.916,0.933-3.83,1.983-5.693,3.121
			c-14.059,8.103-22.399,20.008-22.914,32.694c-0.065,0.647-0.204,2.426-0.077,4.873c0.003,0.059,0.007,0.117,0.013,0.176
			c0.365,4.19,1.591,8.44,3.564,12.423c25.03-8.753,48.583-23.247,59.196-48.555c-7.482,26.537-29.046,45.491-53.078,57.783
			c5.738,6.804,13.506,10.505,21.534,10.207C53.093,150.476,64.238,144.703,74.868,133.174z"/>
	</g>
	
		<radialGradient id="SVGID_1_" cx="-236.75" cy="4.5063" r="197.8697" gradientTransform="matrix(0.8895 0.4569 -0.4569 0.8895 241.2554 249.3241)" gradientUnits="userSpaceOnUse">
		<stop  offset="0" style="stop-color:#FFFFFF"/>
		<stop  offset="0.3195" style="stop-color:#FCFCFC"/>
		<stop  offset="0.5722" style="stop-color:#F2F2F2"/>
		<stop  offset="0.8014" style="stop-color:#E1E1E1"/>
		<stop  offset="1" style="stop-color:#CCCCCC"/>
	</radialGradient>
	<path fill="url(#SVGID_1_)" d="M78.49,136.543c0.01-0.01,0.018-0.021,0.029-0.03c1.583-1.732,3.077-3.547,4.438-5.392
		c5.803-7.856,9.875-17.16,12.1-27.648c1.941-9.148,2.443-18.987,1.494-29.24c-0.006-0.064-0.013-0.127-0.019-0.19
		c-0.162-1.442-0.366-2.905-0.606-4.347c-2.545-15.294-8.748-25.865-9.01-26.308c-0.204-0.343-0.425-0.67-0.664-0.979
		c-2.478-3.226-6.726-4.639-10.698-3.441c-4.291,1.292-7.168,5.304-7.035,9.766c-0.045,0.404-0.472,3.375-3.5,7.443
		c-3.798,5.103-10.04,9.604-18.051,13.02c-1.419,0.604-2.917,1.186-4.448,1.726c-0.054,0.02-0.108,0.039-0.161,0.059
		c-2.122,0.79-4.235,1.696-6.284,2.693c-2.041,0.995-4.077,2.109-6.056,3.315c-6.673,3.856-12.442,8.768-16.686,14.206
		c-5.382,6.896-8.287,14.432-8.639,22.404c-0.085,0.923-0.213,2.883-0.08,5.465c0.006,0.117,0.014,0.234,0.025,0.352
		c0.492,5.633,2.326,11.346,5.303,16.519c0.88,1.53,1.875,3.04,2.96,4.489c0.464,0.691,0.952,1.372,1.455,2.026
		c6.805,8.859,16.506,13.718,26.622,13.337c7.455-0.23,14.692-2.307,21.512-6.178C68.067,146.447,73.3,142.172,78.49,136.543z
		 M40.63,145.9c-7.565,0.293-14.055-3.788-18.427-9.479c-0.43-0.559-0.838-1.132-1.226-1.719c-0.898-1.185-1.723-2.421-2.46-3.703
		c-2.213-3.846-3.643-8.096-4.022-12.444c-0.133-2.586,0.073-4.26,0.073-4.26c0.446-12.881,10.225-22.889,20.506-28.801
		c1.76-1.077,3.537-2.052,5.332-2.925c1.792-0.873,3.604-1.646,5.405-2.317c1.771-0.625,3.448-1.278,5.036-1.955
		c23.833-10.158,27.768-25.672,27.561-29.858c0,0,5.488,9.242,7.758,22.882c0.207,1.239,0.387,2.516,0.533,3.825
		c1.616,17.435-1.236,35.93-11.702,50.101c-1.163,1.575-2.419,3.102-3.78,4.591C63.162,138.571,53.177,145.529,40.63,145.9z"/>
	<path fill="#FFFFFF" d="M11.824,125.527c0,0,13.721,13.934,26.309,10.183c12.588-3.75,22.769-21.841,20.097-36.096
		c-2.672-14.255-10.864-24.683-22.241-18.533s-23.017,20.16-24.447,29.865C10.11,120.649,11.824,125.527,11.824,125.527z"/>
	<g>
		<path fill="#1BA24A" d="M41.592,135.543l0.028-0.014c-0.008,0.003-0.015,0.007-0.022,0.011
			C41.595,135.541,41.593,135.542,41.592,135.543z M57.862,114.202c0.448-1.455,0.821-2.93,1.106-4.38
			c1.227-6.211,1.032-12.813-0.578-19.62c-1.423-6.022-3.912-12.065-7.395-17.961c-0.012-0.02-0.023-0.039-0.035-0.058
			c-0.503-0.815-1.035-1.627-1.58-2.411c-5.807-8.378-12.362-12.854-12.638-13.041c-0.116-0.078-0.234-0.147-0.356-0.21
			c-1.264-0.649-2.817-0.462-3.895,0.509c-1.179,1.064-1.482,2.795-0.733,4.196c0.321,0.601,1.086,3.222,0.415,7.242
			c-0.602,3.603-2.558,9.292-8.455,15.926c-0.765,0.86-1.588,1.728-2.447,2.578c-0.015,0.014-0.028,0.028-0.042,0.043
			c-1.025,1.051-2.016,2.171-2.946,3.328c-0.932,1.161-1.828,2.396-2.666,3.671c-6.466,9.317-8.184,19.329-4.723,27.5
			c0.152,0.429,0.595,1.594,1.406,3.104c0.02,0.035,0.04,0.071,0.061,0.106c1.481,2.539,3.525,4.86,5.96,6.787
			c13.205-13.002,23.763-29.191,22.917-48.353c3.192,19.004-4.778,37.418-16.295,52.359c5.656,2.587,11.67,2.607,16.654,0.022
			C49.266,131.635,54.586,124.659,57.862,114.202z"/>
	</g>
	
		<radialGradient id="SVGID_2_" cx="-250.3813" cy="9.8398" r="196.1853" gradientTransform="matrix(0.8895 0.4569 -0.4569 0.8895 241.2554 249.3241)" gradientUnits="userSpaceOnUse">
		<stop  offset="0" style="stop-color:#FFFFFF"/>
		<stop  offset="0.3195" style="stop-color:#FCFCFC"/>
		<stop  offset="0.5722" style="stop-color:#F2F2F2"/>
		<stop  offset="0.8014" style="stop-color:#E1E1E1"/>
		<stop  offset="1" style="stop-color:#CCCCCC"/>
	</radialGradient>
	<path fill="url(#SVGID_2_)" d="M61.157,115.249c0.002-0.009,0.005-0.019,0.008-0.027c0.484-1.568,0.887-3.16,1.196-4.731
		c1.322-6.697,1.118-13.792-0.606-21.084c-1.504-6.361-4.122-12.729-7.784-18.924c-0.022-0.039-0.045-0.077-0.069-0.114
		c-0.532-0.864-1.097-1.727-1.68-2.567c-6.173-8.904-13.248-13.734-13.546-13.935c-0.231-0.156-0.468-0.297-0.711-0.422
		c-2.528-1.299-5.635-0.923-7.788,1.019c-2.325,2.098-2.947,5.491-1.531,8.271c0.092,0.268,0.709,2.273,0.01,5.748
		c-0.877,4.358-3.478,9.065-7.521,13.615c-0.717,0.806-1.489,1.621-2.296,2.419c-0.028,0.027-0.057,0.057-0.084,0.085
		c-1.104,1.132-2.17,2.336-3.167,3.576c-0.993,1.238-1.947,2.551-2.837,3.903c-3.066,4.43-5.246,9.254-6.305,13.958
		c-1.343,5.964-0.93,11.593,1.228,16.736c0.222,0.609,0.726,1.885,1.581,3.477c0.039,0.073,0.079,0.145,0.12,0.216
		c1.993,3.413,4.856,6.476,8.282,8.856c1.013,0.704,2.092,1.36,3.209,1.953c0.5,0.298,1.012,0.583,1.525,0.847
		c6.944,3.566,14.525,3.742,20.805,0.482c4.643-2.37,8.596-5.844,11.75-10.324C57.526,124.618,59.557,120.354,61.157,115.249z
		 M40.023,132.462c-4.693,2.443-10.013,1.802-14.473-0.489c-0.438-0.226-0.868-0.466-1.288-0.722
		c-0.921-0.479-1.811-1.016-2.66-1.604c-2.546-1.771-4.718-4.03-6.256-6.664c-0.856-1.595-1.225-2.715-1.225-2.715
		c-3.564-8.272-0.371-17.516,4.362-24.32c0.791-1.205,1.623-2.352,2.496-3.439c0.872-1.086,1.786-2.116,2.725-3.078
		c0.932-0.923,1.797-1.837,2.599-2.739c12.029-13.531,9.886-24.51,8.506-27.093c0,0,6.227,4.203,11.732,12.144
		c0.5,0.722,0.995,1.475,1.479,2.258c6.225,10.536,9.943,23.074,7.558,35.154c-0.264,1.342-0.604,2.682-1.02,4.029
		C52.075,121.106,47.842,128.482,40.023,132.462z"/>
</g>
<g>
	<path fill="#FFFFFF" d="M101.254,134.735v2.444h3.731v-2.444c0-0.35,0.079-0.611,0.236-0.786c0.157-0.174,0.364-0.262,0.62-0.262
		c0.26,0,0.471,0.086,0.632,0.259c0.161,0.173,0.242,0.436,0.242,0.789v6.723c0,0.354-0.082,0.617-0.245,0.792
		c-0.163,0.174-0.373,0.262-0.629,0.262c-0.26,0-0.467-0.088-0.623-0.265c-0.155-0.177-0.233-0.439-0.233-0.789v-2.87h-3.731v2.87
		c0,0.354-0.082,0.617-0.245,0.792c-0.163,0.174-0.373,0.262-0.628,0.262c-0.26,0-0.468-0.088-0.623-0.265
		c-0.155-0.177-0.233-0.439-0.233-0.789v-6.723c0-0.35,0.077-0.611,0.23-0.786c0.153-0.174,0.362-0.262,0.626-0.262
		c0.26,0,0.47,0.086,0.631,0.259C101.174,134.119,101.254,134.382,101.254,134.735z"/>
	<path fill="#FFFFFF" d="M108.641,141.458v-6.723c0-0.35,0.08-0.611,0.239-0.786c0.159-0.174,0.365-0.262,0.617-0.262
		c0.26,0,0.47,0.086,0.631,0.259c0.161,0.173,0.242,0.436,0.242,0.789v6.723c0,0.354-0.081,0.617-0.242,0.792
		c-0.161,0.174-0.372,0.262-0.631,0.262c-0.249,0-0.453-0.088-0.614-0.265C108.721,142.07,108.641,141.808,108.641,141.458z"/>
	<path fill="#FFFFFF" d="M120.096,138.897v1.636c0,0.217-0.021,0.391-0.064,0.521c-0.042,0.13-0.121,0.247-0.235,0.352
		c-0.115,0.105-0.261,0.206-0.439,0.303c-0.517,0.279-1.013,0.483-1.49,0.611c-0.478,0.128-0.998,0.192-1.56,0.192
		c-0.656,0-1.253-0.101-1.793-0.303c-0.539-0.202-0.999-0.495-1.379-0.879s-0.672-0.85-0.876-1.397s-0.306-1.158-0.306-1.833
		c0-0.664,0.099-1.271,0.297-1.822c0.198-0.551,0.489-1.019,0.873-1.403s0.852-0.678,1.403-0.882
		c0.551-0.204,1.176-0.306,1.875-0.306c0.574,0,1.083,0.077,1.525,0.23s0.801,0.346,1.077,0.579
		c0.276,0.233,0.483,0.479,0.623,0.739s0.209,0.491,0.209,0.692c0,0.218-0.081,0.403-0.242,0.556s-0.354,0.23-0.579,0.23
		c-0.124,0-0.244-0.029-0.358-0.087s-0.21-0.14-0.288-0.245c-0.213-0.333-0.394-0.586-0.542-0.756
		c-0.147-0.171-0.346-0.314-0.597-0.431c-0.25-0.116-0.569-0.174-0.958-0.174c-0.399,0-0.756,0.069-1.071,0.207
		s-0.583,0.337-0.806,0.6c-0.223,0.262-0.394,0.583-0.512,0.963c-0.119,0.38-0.178,0.801-0.178,1.263c0,1.001,0.23,1.771,0.69,2.311
		c0.46,0.54,1.101,0.809,1.924,0.809c0.399,0,0.775-0.052,1.126-0.157c0.352-0.104,0.708-0.254,1.068-0.448v-1.385h-1.339
		c-0.322,0-0.565-0.048-0.73-0.146c-0.165-0.097-0.248-0.262-0.248-0.495c0-0.19,0.069-0.347,0.207-0.472
		c0.138-0.124,0.325-0.186,0.562-0.186h1.961c0.241,0,0.444,0.021,0.611,0.064c0.167,0.043,0.302,0.138,0.405,0.285
		C120.044,138.381,120.096,138.602,120.096,138.897z"/>
	<path fill="#FFFFFF" d="M123.483,134.735v2.444h3.731v-2.444c0-0.35,0.078-0.611,0.235-0.786c0.157-0.174,0.364-0.262,0.62-0.262
		c0.26,0,0.471,0.086,0.632,0.259c0.161,0.173,0.241,0.436,0.241,0.789v6.723c0,0.354-0.081,0.617-0.244,0.792
		c-0.163,0.174-0.373,0.262-0.629,0.262c-0.26,0-0.468-0.088-0.623-0.265c-0.155-0.177-0.232-0.439-0.232-0.789v-2.87h-3.731v2.87
		c0,0.354-0.081,0.617-0.244,0.792c-0.163,0.174-0.372,0.262-0.629,0.262c-0.26,0-0.467-0.088-0.623-0.265
		c-0.155-0.177-0.233-0.439-0.233-0.789v-6.723c0-0.35,0.077-0.611,0.23-0.786c0.153-0.174,0.362-0.262,0.625-0.262
		c0.26,0,0.471,0.086,0.632,0.259C123.403,134.119,123.483,134.382,123.483,134.735z"/>
	<path fill="#FFFFFF" d="M137.093,139.042h-1.583v2.416c0,0.346-0.082,0.607-0.244,0.786c-0.163,0.178-0.369,0.268-0.617,0.268
		c-0.26,0-0.47-0.088-0.629-0.265c-0.159-0.177-0.238-0.436-0.238-0.777v-6.577c0-0.38,0.087-0.652,0.262-0.815
		c0.175-0.163,0.452-0.245,0.832-0.245h2.218c0.656,0,1.16,0.05,1.514,0.151c0.35,0.097,0.65,0.258,0.905,0.483
		c0.254,0.225,0.447,0.501,0.579,0.827c0.132,0.326,0.197,0.693,0.197,1.1c0,0.869-0.268,1.528-0.803,1.976
		S138.152,139.042,137.093,139.042z M136.674,135.131h-1.164v2.608h1.164c0.407,0,0.748-0.042,1.021-0.128s0.482-0.225,0.626-0.419
		c0.144-0.194,0.215-0.448,0.215-0.762c0-0.376-0.11-0.683-0.331-0.92C137.956,135.257,137.446,135.131,136.674,135.131z"/>
	<path fill="#FFFFFF" d="M147.354,135.166h-3.894v2.095h3.586c0.264,0,0.46,0.06,0.591,0.178c0.13,0.118,0.194,0.274,0.194,0.469
		c0,0.194-0.063,0.352-0.191,0.474c-0.129,0.122-0.326,0.184-0.594,0.184h-3.586v2.427h4.028c0.271,0,0.476,0.063,0.613,0.189
		s0.207,0.294,0.207,0.503c0,0.202-0.069,0.366-0.207,0.492c-0.138,0.126-0.342,0.189-0.613,0.189h-4.698
		c-0.376,0-0.646-0.083-0.812-0.25c-0.165-0.167-0.247-0.437-0.247-0.809v-6.414c0-0.249,0.036-0.451,0.11-0.608
		c0.073-0.157,0.189-0.271,0.347-0.344c0.157-0.071,0.357-0.107,0.602-0.107h4.563c0.276,0,0.48,0.061,0.614,0.183
		c0.134,0.123,0.201,0.283,0.201,0.48c0,0.202-0.067,0.364-0.201,0.486C147.835,135.105,147.631,135.166,147.354,135.166z"/>
	<path fill="#FFFFFF" d="M152.006,138.717H151.4v2.741c0,0.361-0.079,0.627-0.238,0.798c-0.159,0.17-0.367,0.256-0.623,0.256
		c-0.275,0-0.489-0.089-0.641-0.268c-0.151-0.179-0.227-0.44-0.227-0.786v-6.565c0-0.373,0.083-0.643,0.25-0.809
		c0.167-0.167,0.437-0.25,0.81-0.25h2.811c0.389,0,0.721,0.017,0.996,0.049c0.275,0.033,0.523,0.1,0.745,0.201
		c0.268,0.112,0.504,0.273,0.71,0.483c0.205,0.209,0.361,0.453,0.469,0.73c0.106,0.277,0.16,0.571,0.16,0.882
		c0,0.637-0.18,1.145-0.539,1.525c-0.358,0.38-0.903,0.65-1.633,0.809c0.307,0.163,0.6,0.404,0.879,0.722
		c0.279,0.318,0.529,0.657,0.748,1.016c0.22,0.359,0.391,0.683,0.513,0.972s0.184,0.488,0.184,0.596
		c0,0.113-0.036,0.224-0.108,0.335c-0.071,0.11-0.17,0.198-0.294,0.262s-0.268,0.096-0.431,0.096c-0.194,0-0.356-0.045-0.489-0.137
		c-0.132-0.091-0.245-0.207-0.34-0.346c-0.096-0.14-0.225-0.346-0.388-0.617l-0.692-1.152c-0.248-0.423-0.471-0.745-0.666-0.966
		c-0.196-0.221-0.396-0.373-0.597-0.454C152.566,138.757,152.313,138.717,152.006,138.717z M152.995,135.131H151.4v2.346h1.548
		c0.416,0,0.765-0.036,1.048-0.107s0.5-0.194,0.649-0.367s0.224-0.411,0.224-0.713c0-0.237-0.06-0.445-0.18-0.626
		c-0.121-0.18-0.287-0.315-0.501-0.404C153.986,135.174,153.589,135.131,152.995,135.131z"/>
	<path fill="#FFFFFF" d="M163.355,135.166h-3.405v2.183h2.847c0.264,0,0.461,0.059,0.591,0.178c0.13,0.118,0.194,0.276,0.194,0.474
		c0,0.198-0.065,0.355-0.197,0.472c-0.132,0.116-0.328,0.175-0.588,0.175h-2.847v2.811c0,0.357-0.08,0.622-0.241,0.795
		c-0.161,0.172-0.368,0.259-0.62,0.259c-0.256,0-0.465-0.087-0.626-0.262c-0.161-0.175-0.241-0.438-0.241-0.792v-6.565
		c0-0.249,0.037-0.451,0.11-0.608c0.074-0.157,0.189-0.271,0.347-0.344c0.157-0.071,0.357-0.107,0.603-0.107h4.074
		c0.275,0,0.48,0.061,0.614,0.183c0.134,0.123,0.201,0.283,0.201,0.48c0,0.202-0.067,0.364-0.201,0.486
		C163.836,135.105,163.631,135.166,163.355,135.166z"/>
	<path fill="#FFFFFF" d="M169.212,133.688c0.885,0,1.645,0.18,2.279,0.539c0.634,0.359,1.114,0.869,1.44,1.531
		s0.489,1.438,0.489,2.331c0,0.66-0.09,1.259-0.269,1.799c-0.178,0.539-0.446,1.007-0.803,1.403
		c-0.357,0.396-0.796,0.698-1.315,0.908c-0.521,0.209-1.116,0.314-1.787,0.314c-0.668,0-1.266-0.108-1.793-0.323
		s-0.968-0.519-1.321-0.911s-0.62-0.863-0.8-1.415c-0.181-0.551-0.271-1.146-0.271-1.787c0-0.656,0.095-1.257,0.282-1.804
		c0.188-0.547,0.461-1.013,0.818-1.397c0.356-0.384,0.792-0.678,1.304-0.882C167.979,133.79,168.561,133.688,169.212,133.688z
		 M171.668,138.076c0-0.625-0.101-1.166-0.302-1.624c-0.202-0.458-0.49-0.804-0.865-1.039c-0.374-0.234-0.804-0.352-1.289-0.352
		c-0.346,0-0.664,0.065-0.957,0.195c-0.293,0.13-0.546,0.319-0.757,0.567c-0.212,0.249-0.379,0.565-0.501,0.952
		s-0.184,0.82-0.184,1.301c0,0.485,0.062,0.924,0.184,1.315c0.122,0.392,0.295,0.717,0.519,0.975
		c0.223,0.258,0.479,0.451,0.768,0.579c0.289,0.128,0.606,0.192,0.952,0.192c0.442,0,0.849-0.111,1.22-0.332
		c0.37-0.221,0.665-0.563,0.885-1.024C171.559,139.32,171.668,138.751,171.668,138.076z"/>
	<path fill="#FFFFFF" d="M177.221,138.717h-0.605v2.741c0,0.361-0.079,0.627-0.238,0.798c-0.159,0.17-0.367,0.256-0.623,0.256
		c-0.275,0-0.489-0.089-0.641-0.268c-0.151-0.179-0.227-0.44-0.227-0.786v-6.565c0-0.373,0.083-0.643,0.25-0.809
		c0.167-0.167,0.437-0.25,0.81-0.25h2.811c0.389,0,0.721,0.017,0.996,0.049c0.275,0.033,0.523,0.1,0.745,0.201
		c0.268,0.112,0.504,0.273,0.71,0.483c0.205,0.209,0.361,0.453,0.469,0.73c0.106,0.277,0.16,0.571,0.16,0.882
		c0,0.637-0.18,1.145-0.539,1.525c-0.358,0.38-0.903,0.65-1.633,0.809c0.307,0.163,0.6,0.404,0.879,0.722
		c0.279,0.318,0.529,0.657,0.748,1.016c0.22,0.359,0.391,0.683,0.513,0.972s0.184,0.488,0.184,0.596
		c0,0.113-0.036,0.224-0.108,0.335c-0.071,0.11-0.17,0.198-0.294,0.262s-0.268,0.096-0.431,0.096c-0.194,0-0.356-0.045-0.489-0.137
		c-0.132-0.091-0.245-0.207-0.34-0.346c-0.096-0.14-0.225-0.346-0.388-0.617l-0.692-1.152c-0.248-0.423-0.471-0.745-0.666-0.966
		c-0.196-0.221-0.396-0.373-0.597-0.454C177.781,138.757,177.527,138.717,177.221,138.717z M178.21,135.131h-1.595v2.346h1.548
		c0.416,0,0.765-0.036,1.048-0.107s0.5-0.194,0.649-0.367s0.224-0.411,0.224-0.713c0-0.237-0.06-0.445-0.18-0.626
		c-0.121-0.18-0.287-0.315-0.501-0.404C179.201,135.174,178.804,135.131,178.21,135.131z"/>
	<path fill="#FFFFFF" d="M186.354,141.08l-1.368-5.437v5.891c0,0.326-0.072,0.571-0.218,0.733c-0.146,0.163-0.339,0.245-0.579,0.245
		c-0.233,0-0.423-0.081-0.57-0.242c-0.147-0.161-0.222-0.406-0.222-0.736v-6.752c0-0.373,0.097-0.624,0.291-0.754
		c0.194-0.13,0.456-0.195,0.786-0.195h0.535c0.322,0,0.556,0.029,0.701,0.087s0.254,0.163,0.323,0.314
		c0.07,0.151,0.149,0.398,0.239,0.739l1.239,4.674l1.24-4.674c0.089-0.341,0.169-0.588,0.238-0.739
		c0.07-0.151,0.178-0.256,0.323-0.314s0.379-0.087,0.701-0.087h0.536c0.329,0,0.592,0.065,0.785,0.195
		c0.194,0.13,0.291,0.381,0.291,0.754v6.752c0,0.326-0.072,0.571-0.218,0.733c-0.146,0.163-0.341,0.245-0.585,0.245
		c-0.229,0-0.417-0.082-0.564-0.245c-0.147-0.163-0.222-0.407-0.222-0.733v-5.891l-1.368,5.437
		c-0.089,0.354-0.162,0.612-0.218,0.777c-0.057,0.165-0.16,0.315-0.312,0.451s-0.361,0.204-0.629,0.204
		c-0.201,0-0.372-0.043-0.512-0.131s-0.249-0.199-0.326-0.335c-0.078-0.136-0.139-0.286-0.184-0.451
		C186.445,141.43,186.4,141.258,186.354,141.08z"/>
	<path fill="#FFFFFF" d="M198.863,141.4l-0.408-1.071h-3.469l-0.407,1.094c-0.159,0.427-0.295,0.715-0.408,0.864
		c-0.112,0.149-0.297,0.224-0.553,0.224c-0.217,0-0.409-0.08-0.576-0.239s-0.25-0.339-0.25-0.541c0-0.117,0.02-0.237,0.058-0.361
		c0.039-0.125,0.104-0.297,0.192-0.518l2.183-5.542c0.063-0.159,0.137-0.35,0.225-0.573c0.087-0.223,0.181-0.409,0.279-0.556
		s0.229-0.267,0.39-0.358s0.36-0.137,0.597-0.137c0.241,0,0.441,0.045,0.603,0.137s0.291,0.208,0.39,0.352
		c0.1,0.144,0.183,0.298,0.251,0.463c0.067,0.165,0.154,0.385,0.259,0.661l2.229,5.506c0.175,0.419,0.262,0.724,0.262,0.914
		c0,0.198-0.082,0.379-0.247,0.544c-0.165,0.165-0.364,0.248-0.597,0.248c-0.136,0-0.253-0.024-0.35-0.073s-0.179-0.114-0.244-0.198
		c-0.066-0.083-0.137-0.211-0.213-0.384C198.982,141.684,198.917,141.532,198.863,141.4z M195.44,139.031h2.55l-1.287-3.521
		L195.44,139.031z"/>
	<path fill="#FFFFFF" d="M204.229,134.724l3.324,5.029v-5.076c0-0.33,0.07-0.577,0.212-0.742c0.142-0.165,0.333-0.248,0.573-0.248
		c0.249,0,0.444,0.083,0.588,0.248c0.144,0.165,0.216,0.412,0.216,0.742v6.711c0,0.749-0.311,1.124-0.932,1.124
		c-0.155,0-0.295-0.022-0.419-0.067c-0.124-0.045-0.24-0.115-0.349-0.212c-0.109-0.097-0.21-0.21-0.303-0.341
		c-0.094-0.13-0.187-0.263-0.279-0.398l-3.242-4.971v5c0,0.326-0.076,0.573-0.228,0.739c-0.151,0.167-0.346,0.25-0.582,0.25
		c-0.244,0-0.44-0.084-0.588-0.253c-0.147-0.168-0.221-0.414-0.221-0.736v-6.583c0-0.279,0.03-0.499,0.093-0.658
		c0.073-0.175,0.195-0.317,0.366-0.428c0.171-0.111,0.355-0.166,0.554-0.166c0.155,0,0.288,0.025,0.398,0.076
		s0.207,0.118,0.291,0.204c0.083,0.085,0.169,0.196,0.256,0.332C204.046,134.435,204.136,134.576,204.229,134.724z"/>
	<path fill="#FFFFFF" d="M218.304,139.671c0,0.271-0.066,0.565-0.2,0.882c-0.134,0.316-0.345,0.626-0.632,0.931
		s-0.654,0.552-1.101,0.742s-0.966,0.285-1.56,0.285c-0.45,0-0.859-0.043-1.229-0.128c-0.368-0.085-0.703-0.218-1.004-0.399
		c-0.301-0.18-0.577-0.418-0.829-0.713c-0.226-0.268-0.417-0.567-0.576-0.899c-0.159-0.332-0.278-0.686-0.358-1.062
		c-0.079-0.376-0.119-0.776-0.119-1.199c0-0.687,0.1-1.302,0.3-1.845s0.486-1.008,0.858-1.394c0.373-0.386,0.81-0.68,1.31-0.882
		c0.501-0.202,1.034-0.303,1.601-0.303c0.691,0,1.306,0.138,1.846,0.413c0.539,0.276,0.952,0.616,1.239,1.021
		c0.287,0.406,0.431,0.789,0.431,1.15c0,0.198-0.069,0.373-0.209,0.524s-0.309,0.227-0.507,0.227c-0.221,0-0.387-0.053-0.497-0.157
		c-0.111-0.105-0.234-0.285-0.37-0.542c-0.225-0.423-0.49-0.739-0.794-0.949c-0.305-0.209-0.681-0.314-1.127-0.314
		c-0.71,0-1.275,0.27-1.696,0.809c-0.421,0.54-0.632,1.306-0.632,2.299c0,0.664,0.093,1.216,0.279,1.656s0.45,0.769,0.792,0.986
		c0.341,0.217,0.741,0.326,1.199,0.326c0.496,0,0.916-0.124,1.26-0.37c0.344-0.247,0.603-0.608,0.777-1.086
		c0.073-0.225,0.165-0.408,0.273-0.55s0.283-0.212,0.523-0.212c0.206,0,0.383,0.072,0.53,0.215S218.304,139.458,218.304,139.671z"/>
	<path fill="#FFFFFF" d="M225.48,135.166h-3.894v2.095h3.586c0.264,0,0.46,0.06,0.591,0.178c0.13,0.118,0.194,0.274,0.194,0.469
		c0,0.194-0.063,0.352-0.191,0.474c-0.129,0.122-0.326,0.184-0.594,0.184h-3.586v2.427h4.028c0.271,0,0.476,0.063,0.613,0.189
		s0.207,0.294,0.207,0.503c0,0.202-0.069,0.366-0.207,0.492c-0.138,0.126-0.342,0.189-0.613,0.189h-4.698
		c-0.376,0-0.646-0.083-0.812-0.25c-0.165-0.167-0.247-0.437-0.247-0.809v-6.414c0-0.249,0.036-0.451,0.11-0.608
		c0.073-0.157,0.189-0.271,0.347-0.344c0.157-0.071,0.357-0.107,0.602-0.107h4.563c0.276,0,0.48,0.061,0.614,0.183
		c0.134,0.123,0.201,0.283,0.201,0.48c0,0.202-0.067,0.364-0.201,0.486C225.961,135.105,225.757,135.166,225.48,135.166z"/>
	<path fill="#FFFFFF" d="M238.06,139.671c0,0.271-0.066,0.565-0.2,0.882c-0.134,0.316-0.345,0.626-0.632,0.931
		s-0.654,0.552-1.101,0.742s-0.966,0.285-1.56,0.285c-0.45,0-0.859-0.043-1.229-0.128c-0.368-0.085-0.703-0.218-1.004-0.399
		c-0.301-0.18-0.577-0.418-0.829-0.713c-0.226-0.268-0.417-0.567-0.576-0.899c-0.159-0.332-0.278-0.686-0.358-1.062
		c-0.079-0.376-0.119-0.776-0.119-1.199c0-0.687,0.1-1.302,0.3-1.845s0.486-1.008,0.858-1.394c0.373-0.386,0.81-0.68,1.31-0.882
		c0.501-0.202,1.034-0.303,1.601-0.303c0.691,0,1.306,0.138,1.846,0.413c0.539,0.276,0.952,0.616,1.239,1.021
		c0.287,0.406,0.431,0.789,0.431,1.15c0,0.198-0.069,0.373-0.209,0.524s-0.309,0.227-0.507,0.227c-0.221,0-0.387-0.053-0.497-0.157
		c-0.111-0.105-0.234-0.285-0.37-0.542c-0.225-0.423-0.49-0.739-0.794-0.949c-0.305-0.209-0.681-0.314-1.127-0.314
		c-0.71,0-1.275,0.27-1.696,0.809c-0.421,0.54-0.632,1.306-0.632,2.299c0,0.664,0.093,1.216,0.279,1.656s0.45,0.769,0.792,0.986
		c0.341,0.217,0.741,0.326,1.199,0.326c0.496,0,0.916-0.124,1.26-0.37c0.344-0.247,0.603-0.608,0.777-1.086
		c0.073-0.225,0.165-0.408,0.273-0.55s0.283-0.212,0.523-0.212c0.206,0,0.383,0.072,0.53,0.215S238.06,139.458,238.06,139.671z"/>
	<path fill="#FFFFFF" d="M241.308,134.735v6.21h3.504c0.279,0,0.494,0.068,0.644,0.204c0.149,0.136,0.224,0.306,0.224,0.512
		c0,0.209-0.073,0.379-0.221,0.509c-0.147,0.13-0.363,0.195-0.646,0.195h-4.173c-0.377,0-0.647-0.083-0.813-0.25
		c-0.165-0.167-0.247-0.437-0.247-0.809v-6.571c0-0.35,0.078-0.611,0.235-0.786c0.157-0.174,0.364-0.262,0.62-0.262
		c0.26,0,0.471,0.086,0.632,0.259C241.228,134.119,241.308,134.382,241.308,134.735z"/>
	<path fill="#FFFFFF" d="M252.437,135.166h-3.894v2.095h3.586c0.264,0,0.46,0.06,0.591,0.178c0.13,0.118,0.194,0.274,0.194,0.469
		c0,0.194-0.063,0.352-0.191,0.474c-0.129,0.122-0.326,0.184-0.594,0.184h-3.586v2.427h4.028c0.271,0,0.476,0.063,0.613,0.189
		s0.207,0.294,0.207,0.503c0,0.202-0.069,0.366-0.207,0.492c-0.138,0.126-0.342,0.189-0.613,0.189h-4.698
		c-0.376,0-0.646-0.083-0.812-0.25c-0.165-0.167-0.247-0.437-0.247-0.809v-6.414c0-0.249,0.036-0.451,0.11-0.608
		c0.073-0.157,0.189-0.271,0.347-0.344c0.157-0.071,0.357-0.107,0.602-0.107h4.563c0.276,0,0.48,0.061,0.614,0.183
		c0.134,0.123,0.201,0.283,0.201,0.48c0,0.202-0.067,0.364-0.201,0.486C252.917,135.105,252.713,135.166,252.437,135.166z"/>
	<path fill="#FFFFFF" d="M260.226,141.4l-0.408-1.071h-3.469l-0.407,1.094c-0.159,0.427-0.295,0.715-0.408,0.864
		c-0.112,0.149-0.297,0.224-0.553,0.224c-0.217,0-0.409-0.08-0.576-0.239s-0.25-0.339-0.25-0.541c0-0.117,0.02-0.237,0.058-0.361
		c0.039-0.125,0.104-0.297,0.192-0.518l2.183-5.542c0.063-0.159,0.137-0.35,0.225-0.573c0.087-0.223,0.181-0.409,0.279-0.556
		s0.229-0.267,0.39-0.358s0.36-0.137,0.597-0.137c0.241,0,0.441,0.045,0.603,0.137s0.291,0.208,0.39,0.352
		c0.1,0.144,0.183,0.298,0.251,0.463c0.067,0.165,0.154,0.385,0.259,0.661l2.229,5.506c0.175,0.419,0.262,0.724,0.262,0.914
		c0,0.198-0.082,0.379-0.247,0.544c-0.165,0.165-0.364,0.248-0.597,0.248c-0.136,0-0.253-0.024-0.35-0.073s-0.179-0.114-0.244-0.198
		c-0.066-0.083-0.137-0.211-0.213-0.384C260.345,141.684,260.279,141.532,260.226,141.4z M256.803,139.031h2.55l-1.287-3.521
		L256.803,139.031z"/>
	<path fill="#FFFFFF" d="M265.592,134.724l3.324,5.029v-5.076c0-0.33,0.07-0.577,0.212-0.742c0.142-0.165,0.333-0.248,0.573-0.248
		c0.249,0,0.444,0.083,0.588,0.248c0.144,0.165,0.216,0.412,0.216,0.742v6.711c0,0.749-0.311,1.124-0.932,1.124
		c-0.155,0-0.295-0.022-0.419-0.067c-0.124-0.045-0.24-0.115-0.349-0.212c-0.109-0.097-0.21-0.21-0.303-0.341
		c-0.094-0.13-0.187-0.263-0.279-0.398l-3.242-4.971v5c0,0.326-0.076,0.573-0.228,0.739c-0.151,0.167-0.346,0.25-0.582,0.25
		c-0.244,0-0.44-0.084-0.588-0.253c-0.147-0.168-0.221-0.414-0.221-0.736v-6.583c0-0.279,0.03-0.499,0.093-0.658
		c0.073-0.175,0.195-0.317,0.366-0.428c0.171-0.111,0.355-0.166,0.554-0.166c0.155,0,0.288,0.025,0.398,0.076
		s0.207,0.118,0.291,0.204c0.083,0.085,0.169,0.196,0.256,0.332C265.409,134.435,265.499,134.576,265.592,134.724z"/>
	<path fill="#FFFFFF" d="M272.466,141.458v-6.723c0-0.35,0.08-0.611,0.239-0.786c0.158-0.174,0.364-0.262,0.616-0.262
		c0.261,0,0.471,0.086,0.632,0.259c0.161,0.173,0.241,0.436,0.241,0.789v6.723c0,0.354-0.08,0.617-0.241,0.792
		c-0.161,0.174-0.371,0.262-0.632,0.262c-0.248,0-0.453-0.088-0.613-0.265C272.547,142.07,272.466,141.808,272.466,141.458z"/>
	<path fill="#FFFFFF" d="M278.38,134.724l3.324,5.029v-5.076c0-0.33,0.07-0.577,0.212-0.742c0.142-0.165,0.333-0.248,0.573-0.248
		c0.249,0,0.444,0.083,0.588,0.248c0.144,0.165,0.216,0.412,0.216,0.742v6.711c0,0.749-0.311,1.124-0.932,1.124
		c-0.155,0-0.295-0.022-0.419-0.067c-0.124-0.045-0.24-0.115-0.349-0.212c-0.109-0.097-0.21-0.21-0.303-0.341
		c-0.094-0.13-0.187-0.263-0.279-0.398l-3.242-4.971v5c0,0.326-0.076,0.573-0.228,0.739c-0.151,0.167-0.346,0.25-0.582,0.25
		c-0.244,0-0.44-0.084-0.588-0.253c-0.147-0.168-0.221-0.414-0.221-0.736v-6.583c0-0.279,0.03-0.499,0.093-0.658
		c0.073-0.175,0.195-0.317,0.366-0.428c0.171-0.111,0.355-0.166,0.554-0.166c0.155,0,0.288,0.025,0.398,0.076
		s0.207,0.118,0.291,0.204c0.083,0.085,0.169,0.196,0.256,0.332C278.197,134.435,278.287,134.576,278.38,134.724z"/>
	<path fill="#FFFFFF" d="M292.979,138.897v1.636c0,0.217-0.021,0.391-0.064,0.521s-0.121,0.247-0.235,0.352
		s-0.262,0.206-0.439,0.303c-0.517,0.279-1.013,0.483-1.49,0.611c-0.478,0.128-0.997,0.192-1.561,0.192
		c-0.655,0-1.253-0.101-1.792-0.303c-0.54-0.202-1-0.495-1.38-0.879s-0.672-0.85-0.876-1.397s-0.306-1.158-0.306-1.833
		c0-0.664,0.099-1.271,0.297-1.822c0.198-0.551,0.489-1.019,0.873-1.403s0.852-0.678,1.403-0.882
		c0.551-0.204,1.176-0.306,1.874-0.306c0.574,0,1.082,0.077,1.524,0.23s0.802,0.346,1.077,0.579s0.483,0.479,0.623,0.739
		s0.21,0.491,0.21,0.692c0,0.218-0.081,0.403-0.242,0.556s-0.354,0.23-0.579,0.23c-0.124,0-0.243-0.029-0.357-0.087
		c-0.115-0.058-0.211-0.14-0.289-0.245c-0.213-0.333-0.394-0.586-0.541-0.756c-0.147-0.171-0.346-0.314-0.597-0.431
		c-0.25-0.116-0.569-0.174-0.957-0.174c-0.4,0-0.757,0.069-1.071,0.207s-0.583,0.337-0.807,0.6
		c-0.223,0.262-0.394,0.583-0.512,0.963s-0.178,0.801-0.178,1.263c0,1.001,0.23,1.771,0.689,2.311
		c0.46,0.54,1.102,0.809,1.924,0.809c0.4,0,0.775-0.052,1.127-0.157c0.351-0.104,0.707-0.254,1.067-0.448v-1.385h-1.338
		c-0.322,0-0.566-0.048-0.73-0.146c-0.165-0.097-0.248-0.262-0.248-0.495c0-0.19,0.069-0.347,0.207-0.472
		c0.138-0.124,0.325-0.186,0.562-0.186h1.962c0.24,0,0.444,0.021,0.611,0.064c0.166,0.043,0.301,0.138,0.404,0.285
		C292.927,138.381,292.979,138.602,292.979,138.897z"/>
	<path fill="#FFFFFF" d="M300.918,139.042h-1.583v2.416c0,0.346-0.082,0.607-0.244,0.786c-0.163,0.178-0.369,0.268-0.617,0.268
		c-0.26,0-0.47-0.088-0.629-0.265c-0.159-0.177-0.238-0.436-0.238-0.777v-6.577c0-0.38,0.087-0.652,0.262-0.815
		c0.175-0.163,0.452-0.245,0.832-0.245h2.218c0.656,0,1.16,0.05,1.514,0.151c0.35,0.097,0.65,0.258,0.905,0.483
		c0.254,0.225,0.447,0.501,0.579,0.827c0.132,0.326,0.197,0.693,0.197,1.1c0,0.869-0.268,1.528-0.803,1.976
		S301.978,139.042,300.918,139.042z M300.499,135.131h-1.164v2.608h1.164c0.407,0,0.748-0.042,1.021-0.128s0.482-0.225,0.626-0.419
		c0.144-0.194,0.215-0.448,0.215-0.762c0-0.376-0.11-0.683-0.331-0.92C301.781,135.257,301.271,135.131,300.499,135.131z"/>
	<path fill="#FFFFFF" d="M311.18,135.166h-3.894v2.095h3.586c0.264,0,0.46,0.06,0.591,0.178c0.13,0.118,0.194,0.274,0.194,0.469
		c0,0.194-0.063,0.352-0.191,0.474c-0.129,0.122-0.326,0.184-0.594,0.184h-3.586v2.427h4.028c0.271,0,0.476,0.063,0.613,0.189
		s0.207,0.294,0.207,0.503c0,0.202-0.069,0.366-0.207,0.492c-0.138,0.126-0.342,0.189-0.613,0.189h-4.698
		c-0.376,0-0.646-0.083-0.812-0.25c-0.165-0.167-0.247-0.437-0.247-0.809v-6.414c0-0.249,0.036-0.451,0.11-0.608
		c0.073-0.157,0.189-0.271,0.347-0.344c0.157-0.071,0.357-0.107,0.602-0.107h4.563c0.276,0,0.48,0.061,0.614,0.183
		c0.134,0.123,0.201,0.283,0.201,0.48c0,0.202-0.067,0.364-0.201,0.486C311.66,135.105,311.456,135.166,311.18,135.166z"/>
	<path fill="#FFFFFF" d="M315.831,138.717h-0.605v2.741c0,0.361-0.079,0.627-0.238,0.798c-0.159,0.17-0.367,0.256-0.623,0.256
		c-0.275,0-0.489-0.089-0.641-0.268c-0.151-0.179-0.227-0.44-0.227-0.786v-6.565c0-0.373,0.083-0.643,0.25-0.809
		c0.167-0.167,0.437-0.25,0.81-0.25h2.811c0.389,0,0.721,0.017,0.996,0.049c0.275,0.033,0.523,0.1,0.745,0.201
		c0.268,0.112,0.504,0.273,0.71,0.483c0.205,0.209,0.361,0.453,0.469,0.73c0.106,0.277,0.16,0.571,0.16,0.882
		c0,0.637-0.18,1.145-0.539,1.525c-0.358,0.38-0.903,0.65-1.633,0.809c0.307,0.163,0.6,0.404,0.879,0.722
		c0.279,0.318,0.529,0.657,0.748,1.016c0.22,0.359,0.391,0.683,0.513,0.972s0.184,0.488,0.184,0.596
		c0,0.113-0.036,0.224-0.108,0.335c-0.071,0.11-0.17,0.198-0.294,0.262s-0.268,0.096-0.431,0.096c-0.194,0-0.356-0.045-0.489-0.137
		c-0.132-0.091-0.245-0.207-0.34-0.346c-0.096-0.14-0.225-0.346-0.388-0.617l-0.692-1.152c-0.248-0.423-0.471-0.745-0.666-0.966
		c-0.196-0.221-0.396-0.373-0.597-0.454C316.392,138.757,316.138,138.717,315.831,138.717z M316.82,135.131h-1.595v2.346h1.548
		c0.416,0,0.765-0.036,1.048-0.107s0.5-0.194,0.649-0.367s0.224-0.411,0.224-0.713c0-0.237-0.06-0.445-0.18-0.626
		c-0.121-0.18-0.287-0.315-0.501-0.404C317.812,135.174,317.414,135.131,316.82,135.131z"/>
	<path fill="#FFFFFF" d="M328.566,139.805c0,0.516-0.134,0.98-0.399,1.391s-0.654,0.733-1.167,0.966
		c-0.512,0.233-1.119,0.349-1.821,0.349c-0.843,0-1.537-0.159-2.084-0.477c-0.389-0.229-0.703-0.535-0.946-0.917
		c-0.242-0.382-0.363-0.754-0.363-1.115c0-0.209,0.072-0.389,0.218-0.539c0.146-0.149,0.331-0.224,0.556-0.224
		c0.183,0,0.337,0.059,0.463,0.175c0.126,0.117,0.234,0.289,0.323,0.518c0.108,0.271,0.227,0.499,0.353,0.681
		c0.126,0.182,0.304,0.333,0.532,0.451c0.229,0.118,0.529,0.177,0.902,0.177c0.512,0,0.929-0.119,1.248-0.358
		c0.32-0.239,0.48-0.536,0.48-0.894c0-0.283-0.086-0.513-0.259-0.689c-0.173-0.177-0.396-0.312-0.669-0.405
		c-0.274-0.093-0.64-0.192-1.098-0.297c-0.613-0.144-1.126-0.312-1.54-0.503c-0.413-0.192-0.741-0.454-0.983-0.786
		c-0.242-0.332-0.363-0.744-0.363-1.237c0-0.469,0.128-0.886,0.384-1.251c0.256-0.364,0.627-0.645,1.111-0.841
		c0.485-0.196,1.056-0.294,1.712-0.294c0.523,0,0.977,0.065,1.359,0.195c0.382,0.13,0.699,0.303,0.951,0.518
		s0.437,0.441,0.553,0.678c0.117,0.237,0.175,0.468,0.175,0.693c0,0.206-0.072,0.391-0.218,0.556s-0.327,0.248-0.545,0.248
		c-0.197,0-0.348-0.05-0.451-0.148c-0.103-0.099-0.214-0.261-0.334-0.486c-0.155-0.322-0.342-0.573-0.56-0.753
		c-0.217-0.181-0.566-0.271-1.047-0.271c-0.446,0-0.807,0.098-1.08,0.294c-0.273,0.196-0.41,0.432-0.41,0.708
		c0,0.17,0.046,0.318,0.14,0.442c0.093,0.124,0.221,0.231,0.384,0.32c0.163,0.089,0.328,0.159,0.495,0.209
		c0.167,0.051,0.442,0.125,0.826,0.221c0.481,0.113,0.917,0.237,1.307,0.373c0.391,0.136,0.722,0.301,0.996,0.495
		c0.273,0.194,0.486,0.439,0.64,0.736S328.566,139.375,328.566,139.805z"/>
	<path fill="#FFFFFF" d="M333.787,133.688c0.885,0,1.645,0.18,2.279,0.539c0.634,0.359,1.114,0.869,1.44,1.531
		s0.489,1.438,0.489,2.331c0,0.66-0.09,1.259-0.269,1.799c-0.178,0.539-0.446,1.007-0.803,1.403
		c-0.357,0.396-0.796,0.698-1.315,0.908c-0.521,0.209-1.116,0.314-1.787,0.314c-0.668,0-1.266-0.108-1.793-0.323
		s-0.968-0.519-1.321-0.911s-0.62-0.863-0.8-1.415c-0.181-0.551-0.271-1.146-0.271-1.787c0-0.656,0.095-1.257,0.282-1.804
		c0.188-0.547,0.461-1.013,0.818-1.397c0.356-0.384,0.792-0.678,1.304-0.882C332.554,133.79,333.136,133.688,333.787,133.688z
		 M336.243,138.076c0-0.625-0.101-1.166-0.302-1.624c-0.202-0.458-0.49-0.804-0.865-1.039c-0.374-0.234-0.804-0.352-1.289-0.352
		c-0.346,0-0.664,0.065-0.957,0.195c-0.293,0.13-0.546,0.319-0.757,0.567c-0.212,0.249-0.379,0.565-0.501,0.952
		s-0.184,0.82-0.184,1.301c0,0.485,0.062,0.924,0.184,1.315c0.122,0.392,0.295,0.717,0.519,0.975
		c0.223,0.258,0.479,0.451,0.768,0.579c0.289,0.128,0.606,0.192,0.952,0.192c0.442,0,0.849-0.111,1.22-0.332
		c0.37-0.221,0.665-0.563,0.885-1.024C336.134,139.32,336.243,138.751,336.243,138.076z"/>
	<path fill="#FFFFFF" d="M341.727,134.724l3.324,5.029v-5.076c0-0.33,0.07-0.577,0.212-0.742c0.142-0.165,0.333-0.248,0.573-0.248
		c0.249,0,0.444,0.083,0.588,0.248c0.144,0.165,0.216,0.412,0.216,0.742v6.711c0,0.749-0.311,1.124-0.932,1.124
		c-0.155,0-0.295-0.022-0.419-0.067c-0.124-0.045-0.24-0.115-0.349-0.212c-0.109-0.097-0.21-0.21-0.303-0.341
		c-0.094-0.13-0.187-0.263-0.279-0.398l-3.242-4.971v5c0,0.326-0.076,0.573-0.228,0.739c-0.151,0.167-0.346,0.25-0.582,0.25
		c-0.244,0-0.44-0.084-0.588-0.253c-0.147-0.168-0.221-0.414-0.221-0.736v-6.583c0-0.279,0.03-0.499,0.093-0.658
		c0.073-0.175,0.195-0.317,0.366-0.428c0.171-0.111,0.355-0.166,0.554-0.166c0.155,0,0.288,0.025,0.398,0.076
		s0.207,0.118,0.291,0.204c0.083,0.085,0.169,0.196,0.256,0.332C341.544,134.435,341.634,134.576,341.727,134.724z"/>
	<path fill="#FFFFFF" d="M348.602,141.458v-6.723c0-0.35,0.08-0.611,0.239-0.786c0.158-0.174,0.364-0.262,0.616-0.262
		c0.261,0,0.471,0.086,0.632,0.259c0.161,0.173,0.241,0.436,0.241,0.789v6.723c0,0.354-0.08,0.617-0.241,0.792
		c-0.161,0.174-0.371,0.262-0.632,0.262c-0.248,0-0.453-0.088-0.613-0.265C348.683,142.07,348.602,141.808,348.602,141.458z"/>
	<path fill="#FFFFFF" d="M357.361,135.166h-3.405v2.183h2.847c0.264,0,0.461,0.059,0.591,0.178c0.13,0.118,0.194,0.276,0.194,0.474
		c0,0.198-0.065,0.355-0.197,0.472c-0.132,0.116-0.328,0.175-0.588,0.175h-2.847v2.811c0,0.357-0.08,0.622-0.241,0.795
		c-0.161,0.172-0.368,0.259-0.62,0.259c-0.256,0-0.465-0.087-0.626-0.262c-0.161-0.175-0.241-0.438-0.241-0.792v-6.565
		c0-0.249,0.037-0.451,0.11-0.608c0.074-0.157,0.189-0.271,0.347-0.344c0.157-0.071,0.357-0.107,0.603-0.107h4.074
		c0.275,0,0.48,0.061,0.614,0.183c0.134,0.123,0.201,0.283,0.201,0.48c0,0.202-0.067,0.364-0.201,0.486
		C357.842,135.105,357.637,135.166,357.361,135.166z"/>
	<path fill="#FFFFFF" d="M359.533,141.458v-6.723c0-0.35,0.08-0.611,0.239-0.786c0.158-0.174,0.364-0.262,0.616-0.262
		c0.261,0,0.471,0.086,0.632,0.259c0.161,0.173,0.241,0.436,0.241,0.789v6.723c0,0.354-0.08,0.617-0.241,0.792
		c-0.161,0.174-0.371,0.262-0.632,0.262c-0.248,0-0.453-0.088-0.613-0.265C359.614,142.07,359.533,141.808,359.533,141.458z"/>
	<path fill="#FFFFFF" d="M368.816,135.166h-3.894v2.095h3.586c0.264,0,0.46,0.06,0.591,0.178c0.13,0.118,0.194,0.274,0.194,0.469
		c0,0.194-0.063,0.352-0.191,0.474c-0.129,0.122-0.326,0.184-0.594,0.184h-3.586v2.427h4.028c0.271,0,0.476,0.063,0.613,0.189
		s0.207,0.294,0.207,0.503c0,0.202-0.069,0.366-0.207,0.492c-0.138,0.126-0.342,0.189-0.613,0.189h-4.698
		c-0.376,0-0.646-0.083-0.812-0.25c-0.165-0.167-0.247-0.437-0.247-0.809v-6.414c0-0.249,0.036-0.451,0.11-0.608
		c0.073-0.157,0.189-0.271,0.347-0.344c0.157-0.071,0.357-0.107,0.602-0.107h4.563c0.276,0,0.48,0.061,0.614,0.183
		c0.134,0.123,0.201,0.283,0.201,0.48c0,0.202-0.067,0.364-0.201,0.486C369.297,135.105,369.093,135.166,368.816,135.166z"/>
	<path fill="#FFFFFF" d="M372.216,133.833h2.253c0.586,0,1.089,0.054,1.508,0.163c0.419,0.108,0.799,0.313,1.141,0.611
		c0.889,0.761,1.333,1.917,1.333,3.469c0,0.512-0.045,0.98-0.134,1.403c-0.089,0.423-0.227,0.804-0.413,1.144
		c-0.187,0.339-0.425,0.643-0.716,0.911c-0.229,0.206-0.479,0.371-0.751,0.495c-0.271,0.124-0.563,0.211-0.876,0.262
		s-0.665,0.076-1.057,0.076h-2.253c-0.314,0-0.551-0.047-0.71-0.143s-0.263-0.229-0.312-0.402c-0.049-0.172-0.072-0.396-0.072-0.672
		v-6.257c0-0.373,0.083-0.643,0.25-0.809C371.574,133.917,371.844,133.833,372.216,133.833z M372.886,135.201v5.792h1.31
		c0.287,0,0.512-0.008,0.675-0.023s0.332-0.054,0.507-0.116s0.326-0.149,0.454-0.262c0.578-0.489,0.867-1.331,0.867-2.526
		c0-0.842-0.127-1.473-0.381-1.892c-0.255-0.419-0.568-0.686-0.94-0.8c-0.373-0.114-0.823-0.172-1.351-0.172H372.886z"/>
</g>
<g>
</g>
<g>
</g>
<g>
</g>
<g>
</g>
<g>
</g>
<g>
</g>
</svg>
